<svg xmlns="http://www.w3.org/2000/svg" version="1.1" xmlns:xlink="http://www.w3.org/1999/xlink" xmlns:svgjs="http://svgjs.dev/svgjs" width="2000" height="1247" viewBox="0 0 2000 1247"><g transform="matrix(1,0,0,1,-1.2121212121212466,0.504858299595071)"><svg viewBox="0 0 396 247" data-background-color="#ffffff" preserveAspectRatio="xMidYMid meet" height="1247" width="2000" xmlns="http://www.w3.org/2000/svg" xmlns:xlink="http://www.w3.org/1999/xlink"><g id="tight-bounds" transform="matrix(1,0,0,1,0.2400000000000091,-0.09999999999999432)"><svg viewBox="0 0 395.52 247.2" height="247.2" width="395.52"><g><svg viewBox="0 0 395.52 247.2" height="247.2" width="395.52"><g transform="matrix(1,0,0,1,0,9.380923076923068)"><svg viewBox="0 0 395.52 228.43815384615385" height="228.43815384615385" width="395.52"><g><svg viewBox="0 0 395.52 228.43815384615385" height="228.43815384615385" width="395.52"><g><svg viewBox="0 0 395.52 228.43815384615385" height="228.43815384615385" width="395.52"><g><svg viewBox="0 0 395.52 228.43815384615385" height="228.43815384615385" width="395.52"><g id="textblocktransform"><svg viewBox="0 0 395.52 228.43815384615385" height="228.43815384615385" width="395.52" id="textblock"><g><svg viewBox="0 0 395.52 228.43815384615385" height="228.43815384615385" width="395.52"><g transform="matrix(1,0,0,1,0,0)"><svg width="395.52" viewBox="-3.65 -41.7 79 46.050000000000004" height="228.43815384615385" data-palette-color="#fafafa"><path d="M14.2-4.05L0.35-11.9 0.8-13.95 17.65-22.45 17.3-18.45 6.2-12.65 15.3-7.9 14.2-4.05ZM35.65 0.35Q30.7 0.35 28.17-2.08 25.65-4.5 25.65-9.25L25.65-9.25Q25.65-11.6 26.35-14.5L26.35-14.5 31.45-34.8Q27.15-33.65 24.75-30.73 22.35-27.8 22.35-24.3L22.35-24.3Q22.35-21.85 23.65-19.55L23.65-19.55Q20.8-19.55 19.22-20.95 17.65-22.35 17.65-24.9L17.65-24.9Q17.65-28.15 20.27-31.13 22.9-34.1 27.25-35.9 31.6-37.7 36.45-37.7L36.45-37.7Q38.15-37.7 39.25-37.45L39.25-37.45 33.15-14.35Q32.3-11.2 32.3-8.95L32.3-8.95Q32.3-4.2 36.2-4.2L36.2-4.2Q41.8-4.2 43.95-14.5L43.95-14.5 48.95-37.6 56-37.6 51.15-14.5Q49.55-7.15 45.62-3.4 41.7 0.35 35.65 0.35L35.65 0.35ZM54.05-4.05L54.4-8.05 65.5-13.85 56.4-18.6 57.5-22.45 71.35-14.6 70.9-12.55 54.05-4.05Z" opacity="1" transform="matrix(1,0,0,1,0,0)" fill="#fafafa" class="wordmark-text-0" data-fill-palette-color="primary" id="text-0"></path></svg></g></svg></g></svg></g></svg></g></svg></g></svg></g></svg></g></svg></g><defs></defs></svg><rect width="395.52" height="247.2" fill="none" stroke="none" visibility="hidden"></rect></g></svg></g></svg>